<?xml version="1.0" encoding="utf-8"?>
<!-- Generator: Adobe Illustrator 22.0.1, SVG Export Plug-In . SVG Version: 6.00 Build 0)  -->
<svg version="1.1" id="Layer_1" xmlns="http://www.w3.org/2000/svg" xmlns:xlink="http://www.w3.org/1999/xlink" x="0px" y="0px"
	 viewBox="0 0 200 300" style="enable-background:new 0 0 200 300;" xml:space="preserve">
<style type="text/css">
	.st0{fill:#32995F;}
	.st1{fill:#1F5F3B;}
	.st2{fill:#E7F7EE;}
</style>
<g>
	<rect x="6" y="6" class="st0" width="188" height="288"/>
	<path class="st1" d="M188,12v276H12V12H188 M200,0H0v300h200V0L200,0z"/>
</g>
<g>
	<g>
		<path class="st2" d="M58,91.6c2.5-2.2,5.2-4.2,8.1-6.2s6.1-3.7,9.5-5.1c3.4-1.5,7.1-2.6,11.1-3.4c4-0.8,8.3-1.3,13-1.3
			c6.3,0,12.1,0.9,17.3,2.6c5.2,1.7,9.6,4.2,13.3,7.5c3.7,3.2,6.6,7.1,8.6,11.7c2,4.6,3.1,9.7,3.1,15.4c0,5.5-0.8,10.3-2.4,14.3
			c-1.6,4-3.6,7.5-6,10.5c-2.4,3-5,5.6-7.9,7.7c-2.9,2.2-5.6,4.2-8.1,6.2c-2.5,1.9-4.7,3.8-6.6,5.7c-1.9,1.9-3,3.9-3.3,6.3
			l-2.5,15.9H86.8l-1.9-17.8c-0.4-3.4,0.1-6.4,1.5-9c1.4-2.6,3.3-4.9,5.7-7.1c2.4-2.1,5-4.2,7.9-6.2c2.9-2,5.6-4.2,8.2-6.5
			c2.5-2.4,4.7-5,6.4-8c1.7-2.9,2.6-6.4,2.6-10.5c0-2.6-0.5-5-1.5-7c-1-2.1-2.3-3.8-4.1-5.3c-1.7-1.5-3.8-2.6-6.3-3.4
			c-2.4-0.8-5.1-1.2-7.9-1.2c-4.1,0-7.6,0.5-10.5,1.4c-2.9,0.9-5.3,1.9-7.3,3.1c-2,1.1-3.7,2.1-5.1,3.1c-1.4,0.9-2.6,1.4-3.7,1.4
			c-2.6,0-4.5-1.1-5.7-3.3L58,91.6z M80.6,206.1c0-2.2,0.4-4.4,1.3-6.4c0.8-2,2-3.8,3.4-5.2c1.5-1.5,3.2-2.6,5.2-3.5
			c2-0.9,4.2-1.3,6.5-1.3c2.3,0,4.5,0.4,6.5,1.3c2,0.9,3.7,2,5.2,3.5c1.5,1.5,2.7,3.2,3.5,5.2c0.9,2,1.3,4.2,1.3,6.4
			c0,2.3-0.4,4.5-1.3,6.5c-0.9,2-2.1,3.7-3.5,5.2c-1.5,1.5-3.2,2.6-5.2,3.4c-2,0.8-4.2,1.3-6.5,1.3c-2.3,0-4.5-0.4-6.5-1.3
			c-2-0.8-3.8-2-5.2-3.4c-1.5-1.5-2.6-3.2-3.4-5.2C81,210.5,80.6,208.4,80.6,206.1z"/>
	</g>
</g>
</svg>
